<svg id="Layer_1" data-name="Layer 1" xmlns="http://www.w3.org/2000/svg" viewBox="0 0 349.22 57.57"><defs><style>.cls-1{fill:#fff;stroke:#231f20;stroke-miterlimit:10;}</style></defs><title>name</title><path class="cls-1" d="M129.18,240.93q0,12.87-7.08,19.83t-19.92,7H85.55v-51.4h17.79q12.37,0,19.11,6.33T129.18,240.93Zm-14.41.49q0-7.07-2.79-10.48t-8.49-3.41h-4v28.79h3.09q6.33,0,9.28-3.67T114.77,241.42Z" transform="translate(-85.05 -211.36)"/><path class="cls-1" d="M163.57,267.72l-2.64-5.27h-.28a15.65,15.65,0,0,1-5.66,4.71,18.7,18.7,0,0,1-7.45,1.27q-5.62,0-8.86-3.37t-3.23-9.49q0-6.36,4.43-9.47t12.83-3.5l6.64-.21v-.56q0-4.92-4.85-4.92-4.36,0-11.07,3l-4-9.07q7-3.59,17.58-3.59,7.66,0,11.87,3.8t4.2,10.62v26.12Zm-10.2-9a6.2,6.2,0,0,0,4.27-1.58,5.25,5.25,0,0,0,1.78-4.11v-3.09l-3.16.14q-6.79.25-6.79,5Q149.47,258.72,153.37,258.72Z" transform="translate(-85.05 -211.36)"/><path class="cls-1" d="M207.58,267.72V246a12.47,12.47,0,0,0-1.14-6,3.9,3.9,0,0,0-3.67-2,5.32,5.32,0,0,0-5,2.78q-1.55,2.78-1.55,9.53v17.44H182.45V227.89h10.37l1.72,4.92h.81a10.89,10.89,0,0,1,4.87-4.22,17.21,17.21,0,0,1,7.15-1.41q6.61,0,10.28,3.83t3.67,10.79v25.91Z" transform="translate(-85.05 -211.36)"/><path class="cls-1" d="M230.4,218a5.81,5.81,0,0,1,1.72-4.61q1.72-1.51,5.55-1.51t5.59,1.55A5.77,5.77,0,0,1,245,218q0,6-7.35,6T230.4,218Zm14.1,49.75H230.75V227.89H244.5Z" transform="translate(-85.05 -211.36)"/><path class="cls-1" d="M273.32,268.42q-9.95,0-15.45-5.29t-5.5-15.06q0-10.09,5.1-15.49t14.55-5.4q9,0,13.9,4.69t4.9,13.52v6.12H266.26a6.82,6.82,0,0,0,2.44,5.24,9.57,9.57,0,0,0,6.28,1.9,30.31,30.31,0,0,0,6.66-.69,33,33,0,0,0,6.59-2.34v9.88a24.24,24.24,0,0,1-6.68,2.29A46.23,46.23,0,0,1,273.32,268.42Zm-.81-31.89a5.72,5.72,0,0,0-4.06,1.53,7.18,7.18,0,0,0-1.92,4.8h11.81a6.86,6.86,0,0,0-1.63-4.61A5.4,5.4,0,0,0,272.52,236.54Z" transform="translate(-85.05 -211.36)"/><path class="cls-1" d="M312.35,267.72H298.6V213h13.75Z" transform="translate(-85.05 -211.36)"/><path class="cls-1" d="M385.44,267.72h-14v-21H355.34v21h-14v-51.4h14v19.05h16.14V216.32h14Z" transform="translate(-85.05 -211.36)"/><path class="cls-1" d="M433.78,247.72q0,9.77-5.26,15.24t-14.71,5.47q-9.07,0-14.43-5.59T394,247.72q0-9.74,5.26-15.13t14.75-5.4a21,21,0,0,1,10.37,2.5,17,17,0,0,1,6.94,7.15A23.1,23.1,0,0,1,433.78,247.72Zm-25.8,0q0,5.13,1.37,7.82a4.77,4.77,0,0,0,4.61,2.69,4.63,4.63,0,0,0,4.52-2.69,18.31,18.31,0,0,0,1.32-7.82q0-5.1-1.34-7.7a5.29,5.29,0,0,0-9.11,0Q408,242.58,408,247.72Z" transform="translate(-85.05 -211.36)"/></svg>